<svg id="Layer_1" enable-background="new 0 0 256 256" height="512" viewBox="0 0 256 256" width="512" xmlns="http://www.w3.org/2000/svg"><g><path d="m100.422 172.545h91.125v29.647h-91.125z" fill="#707070"/><g><path d="m100.422 172.545h14.667v29.646h-14.667z" fill="#5b5b5b"/></g><g><path d="m176.881 172.545h14.667v29.646h-14.667z" fill="#9e9e9e"/></g><path d="m189.016 28.039c-6.468 0-11.76 5.292-11.76 11.76 0-6.468-5.292-11.76-11.76-11.76s-11.76 5.292-11.76 11.76c0-6.468-5.292-11.76-11.76-11.76s-11.76 5.292-11.76 11.76c0-6.468-5.292-11.76-11.76-11.76-6.468 0-11.76 5.292-11.76 11.76v112.972 19.773h78.583v-18.578l8.869-11.157c4.294-5.402 6.631-12.099 6.631-19v-84.009c-.002-6.469-5.295-11.761-11.763-11.761z" fill="#f8af23"/><g><path d="m189.016 28.039c-2.769 0-5.318.975-7.333 2.592 2.692 2.16 4.427 5.469 4.427 9.168v84.01c0 6.901-2.338 13.598-6.631 19l-8.869 11.157v18.578h14.667v-18.578l8.869-11.157c4.294-5.402 6.631-12.099 6.631-19v-84.009c0-6.469-5.293-11.761-11.761-11.761z" fill="#f8d323"/></g><path d="m219.272 123.496h-134.99c-1.105 0-2-.895-2-2v-81.267c0-1.105.895-2 2-2h134.99c1.105 0 2 .895 2 2v81.267c0 1.104-.896 2-2 2z" fill="#63bce7"/><g><path d="m96.948 121.496v-81.267c0-1.105.895-2 2-2h-14.666c-1.105 0-2 .895-2 2v81.267c0 1.105.895 2 2 2h14.667c-1.105 0-2.001-.895-2.001-2z" fill="#6377e7"/></g><g><path d="m219.272 38.229h-14.667c1.105 0 2 .895 2 2v81.267c0 1.105-.895 2-2 2h14.667c1.105 0 2-.895 2-2v-81.267c0-1.104-.896-2-2-2z" fill="#63e2e7"/></g><path d="m122.957 152.771c-4.472 4.472-11.791 4.472-16.263 0l-38.612-38.611c-4.472-4.472-4.472-11.791 0-16.263 4.472-4.472 11.791-4.472 16.263 0l38.611 38.611c4.473 4.472 4.473 11.791.001 16.263z" fill="#f8af23"/><g><path d="m82.749 114.16c-4.472-4.472-4.472-11.791 0-16.263.256-.256.524-.494.798-.721-4.506-3.732-11.249-3.495-15.465.721-4.472 4.472-4.472 11.791 0 16.263l38.611 38.611v19.773h14.667v-19.773z" fill="#f87023"/></g><path d="m100.422 202.191h91.125v29.647h-91.125z" fill="#cecece"/><circle cx="120.027" cy="187.368" fill="#63bce7" r="6.75"/><path d="m82.282 52.815h138.99v13.333h-138.99z" fill="#f46275"/><g><path d="m206.605 52.815h14.667v13.333h-14.667z" fill="#f48875"/></g><g><path d="m82.282 52.815h10.515v13.333h-10.515z" fill="#f43075"/></g><g><g fill="#f8af23"><circle cx="194.756" cy="104.444" r="8.129"/><circle cx="173.619" cy="104.444" r="8.129"/></g><path d="m100.669 100.737h37.354v7.857h-37.354z" fill="#9e9e9e"/></g><circle cx="71.854" cy="50.315" fill="#f46275" r="37.126"/><g><path d="m49.395 50.316c0-17.993 12.801-32.994 29.793-36.398-2.371-.475-4.823-.728-7.333-.728-20.504 0-37.126 16.622-37.126 37.126s16.621 37.125 37.125 37.125c2.511 0 4.962-.252 7.333-.728-16.99-3.404-29.792-18.404-29.792-36.397z" fill="#f43075"/></g><g><path d="m100.422 202.191h14.667v29.646h-14.667z" fill="#afafaf"/></g><g><path d="m176.881 202.191h14.667v29.646h-14.667z" fill="#e2e2e2"/></g><g fill="#3f3679"><path d="m120.026 179.118c-4.549 0-8.25 3.701-8.25 8.25s3.701 8.25 8.25 8.25 8.25-3.701 8.25-8.25-3.701-8.25-8.25-8.25zm0 13.5c-2.895 0-5.25-2.355-5.25-5.25s2.355-5.25 5.25-5.25 5.25 2.355 5.25 5.25-2.355 5.25-5.25 5.25z"/><path d="m148.276 185.868h-10.5c-.828 0-1.5.672-1.5 1.5s.672 1.5 1.5 1.5h10.5c.828 0 1.5-.672 1.5-1.5s-.672-1.5-1.5-1.5z"/><path d="m194.756 114.073c5.31 0 9.629-4.319 9.629-9.629s-4.319-9.629-9.629-9.629-9.629 4.319-9.629 9.629 4.319 9.629 9.629 9.629zm0-16.258c3.655 0 6.629 2.974 6.629 6.629s-2.974 6.629-6.629 6.629-6.629-2.974-6.629-6.629 2.974-6.629 6.629-6.629z"/><path d="m173.619 114.073c5.31 0 9.629-4.319 9.629-9.629s-4.319-9.629-9.629-9.629-9.629 4.319-9.629 9.629 4.32 9.629 9.629 9.629zm0-16.258c3.655 0 6.629 2.974 6.629 6.629s-2.974 6.629-6.629 6.629-6.629-2.974-6.629-6.629 2.974-6.629 6.629-6.629z"/><path d="m100.669 110.094h37.354c.828 0 1.5-.672 1.5-1.5v-7.856c0-.828-.672-1.5-1.5-1.5h-37.354c-.828 0-1.5.672-1.5 1.5v7.856c0 .828.672 1.5 1.5 1.5zm1.5-7.857h34.354v4.856h-34.354z"/><path d="m27.323 241.311h-18.003c-.828 0-1.5.672-1.5 1.5s.672 1.5 1.5 1.5h18.003c.828 0 1.5-.672 1.5-1.5s-.672-1.5-1.5-1.5z"/><path d="m246.68 241.311h-18.003c-.828 0-1.5.672-1.5 1.5s.672 1.5 1.5 1.5h18.003c.828 0 1.5-.672 1.5-1.5s-.672-1.5-1.5-1.5z"/><path d="m218.479 241.311h-180.958c-.828 0-1.5.672-1.5 1.5s.672 1.5 1.5 1.5h180.959c.828 0 1.5-.672 1.5-1.5s-.672-1.5-1.501-1.5z"/><path d="m9.32 233.338h91.103 91.125 55.132c.828 0 1.5-.672 1.5-1.5s-.672-1.5-1.5-1.5h-53.632v-28.146-29.646c0-.828-.672-1.5-1.5-1.5h-4.771v-16.556l8.543-10.747c4.24-5.333 6.676-11.949 6.932-18.746h17.021c1.93 0 3.5-1.57 3.5-3.5v-55.349-13.333-12.586c0-1.93-1.57-3.5-3.5-3.5h-17.366c-1.413-5.953-6.697-10.19-12.89-10.19-5.034 0-9.522 2.862-11.759 7.162-2.235-4.301-6.716-7.162-11.761-7.162-5.075 0-9.535 2.851-11.761 7.152-2.229-4.301-6.693-7.152-11.76-7.152-5.033 0-9.522 2.863-11.76 7.162-2.236-4.301-6.721-7.162-11.76-7.162-5.054 0-9.515 2.844-11.749 7.133-6.229-12.99-19.508-21.982-34.851-21.982-21.299 0-38.626 17.327-38.626 38.626s17.327 38.626 38.626 38.626c3.073 0 6.059-.371 8.927-1.053v5.983c-4.627-1.73-10.045-.749-13.76 2.965-5.068 5.068-5.068 13.315 0 18.384l38.172 38.172v6.198 11.454h-4.771c-.828 0-1.5.672-1.5 1.5v29.646 28.146h-89.604c-.828 0-1.5.672-1.5 1.5s.672 1.501 1.5 1.501zm100.953-179.023h109.498v10.333h-112.06c1.306-3.252 2.189-6.717 2.562-10.333zm109.498-14.086v11.086h-109.316c.009-.333.025-.665.025-1 0-3.671-.526-7.219-1.487-10.586h110.278c.276 0 .5.225.5.5zm-30.754-10.69c4.466 0 8.442 3.01 9.776 7.19h-19.557c1.329-4.225 5.273-7.19 9.781-7.19zm-23.522 0c4.518 0 8.452 2.963 9.781 7.19h-19.556c1.333-4.18 5.308-7.19 9.775-7.19zm-23.52 0c4.539 0 8.455 2.956 9.781 7.19h-19.562c1.33-4.225 5.274-7.19 9.781-7.19zm-23.521 0c4.513 0 8.451 2.964 9.781 7.19h-19.562c1.327-4.233 5.246-7.19 9.781-7.19zm-82.225 20.776c0-19.645 15.981-35.626 35.626-35.626s35.626 15.981 35.626 35.626-15.982 35.626-35.627 35.626-35.625-15.981-35.625-35.626zm47.552 36.733c9.851-3.206 17.97-10.269 22.576-19.4h113.414v53.848c0 .275-.225.5-.5.5h-91.261c-.519-.014-.847-.003-.9 0h-12.027-4.518l-25.159-25.159c-.509-.509-1.058-.953-1.625-1.36zm24.412 72.543v-6.819c0-.397-.158-.779-.439-1.061l-38.611-38.611c-3.898-3.898-3.898-10.243 0-14.142 1.88-1.88 4.392-2.915 7.071-2.915s5.191 1.035 7.071 2.915l25.599 25.599c.281.281.663.439 1.061.439h5.133.006 12.679c1.929.042 8.451.546 13.567 5.417 4.5 4.282 6.781 10.833 6.781 19.47 0 .828.672 1.5 1.5 1.5s1.5-.672 1.5-1.5c0-9.49-2.595-16.772-7.713-21.643-1.427-1.358-2.939-2.41-4.447-3.244h60.275c-.254 6.121-2.436 12.075-6.254 16.879l-8.869 11.157c-.211.266-.326.595-.326.934v17.079h-75.583v-11.454zm-6.27 14.454h4.771 78.583 4.771v11.823h-33.146c-.828 0-1.5.672-1.5 1.5s.672 1.5 1.5 1.5h33.146v11.823h-88.125zm0 29.646h88.125v26.646h-88.125z"/><path d="m83.575 51.842c-2.703 0-4.916.815-6.639 2.444-1.721 1.63-2.583 3.927-2.583 6.889s.861 5.268 2.583 6.916c1.723 1.648 3.936 2.472 6.639 2.472 2.741 0 4.962-.823 6.667-2.472 1.703-1.648 2.555-3.954 2.555-6.916s-.852-5.259-2.555-6.889c-1.705-1.629-3.926-2.444-6.667-2.444zm2.139 12.083c-.536.648-1.249.972-2.139.972-.926 0-1.648-.324-2.167-.972-.518-.647-.777-1.564-.777-2.749 0-1.148.259-2.046.777-2.695.518-.647 1.241-.972 2.167-.972.889 0 1.602.325 2.139.972.536.648.805 1.546.805 2.695 0 1.184-.269 2.102-.805 2.749z"/><path d="m80.412 30.622c-1.474 0-2.83.806-3.535 2.1l-17.06 31.336c-1.46 2.682.481 5.949 3.535 5.949 1.474 0 2.83-.806 3.535-2.1l17.06-31.336c1.46-2.681-.481-5.949-3.535-5.949z"/><path d="m66.883 46.288c1.721-1.629 2.583-3.925 2.583-6.888 0-2.962-.861-5.258-2.583-6.888-1.723-1.629-3.936-2.444-6.639-2.444-2.777 0-5.028.815-6.749 2.444-1.723 1.63-2.583 3.926-2.583 6.888 0 2.963.86 5.259 2.583 6.888 1.721 1.63 3.972 2.444 6.749 2.444 2.704-.001 4.916-.814 6.639-2.444zm-8.861-4.194c-.518-.648-.777-1.546-.777-2.695 0-1.147.259-2.046.777-2.695.518-.647 1.223-.972 2.112-.972.925 0 1.665.325 2.221.972.556.648.833 1.547.833 2.695s-.277 2.046-.833 2.695c-.556.648-1.297.972-2.221.972-.89 0-1.594-.324-2.112-.972z"/></g></g></svg>